<svg id="Layer_1" data-name="Layer 1" xmlns="http://www.w3.org/2000/svg" viewBox="0 0 450 450"><defs><style>.cls-1{fill:#f15a29;}.cls-2{fill:#15a09e;}.cls-3{fill:#139499;}.cls-4{fill:#007e85;}.cls-5{fill:#a4c2d1;}.cls-6{fill:#db823c;}.cls-7{fill:#d8681d;}.cls-8{fill:#c4fdf7;}.cls-9{fill:#ef8e4b;}.cls-10{fill:#81c1bd;}.cls-11{fill:#f2d49b;}.cls-12{fill:#ffdeae;}.cls-13{fill:#f7941e;}</style></defs><path class="cls-1" d="M150.39,109a2.41,2.41,0,0,1-2.41-2.42V74.13a2.41,2.41,0,1,1,4.82,0v32.43A2.41,2.41,0,0,1,150.39,109Z"/><path class="cls-1" d="M172.78,109a2.41,2.41,0,0,1-2.41-2.42V74.13a2.41,2.41,0,1,1,4.82,0v32.43A2.41,2.41,0,0,1,172.78,109Z"/><path class="cls-1" d="M172.78,92.76H150.39a2.42,2.42,0,0,1,0-4.83h22.39a2.42,2.42,0,0,1,0,4.83Z"/><path class="cls-1" d="M199.53,109h-4.15c-7.16,0-13-5.25-13-11.71v-16c0-6.45,5.82-11.71,13-11.71h4.15c7.15,0,13,5.26,13,11.71v16C212.5,103.73,206.68,109,199.53,109Zm-4.15-34.62c-4.5,0-8.17,3.08-8.17,6.87v16c0,3.79,3.67,6.88,8.17,6.88h4.15c4.5,0,8.16-3.09,8.16-6.88v-16c0-3.79-3.66-6.87-8.16-6.87Z"/><path class="cls-1" d="M243.69,76.55H220.05a2.42,2.42,0,0,1,0-4.84h23.64a2.42,2.42,0,0,1,0,4.84Z"/><path class="cls-1" d="M231.87,109a2.41,2.41,0,0,1-2.41-2.42V74.13a2.41,2.41,0,1,1,4.82,0v32.43A2.41,2.41,0,0,1,231.87,109Z"/><path class="cls-1" d="M272.3,91.67H255.71a2.42,2.42,0,0,1,0-4.83H272.3a2.42,2.42,0,0,1,0,4.83Z"/><path class="cls-1" d="M274.37,109H254.05a2.8,2.8,0,0,1-2.82-2.42V74.13a2.41,2.41,0,0,1,2.41-2.42h20.73a2.42,2.42,0,0,1,0,4.84H256v27.6h18.33a2.42,2.42,0,0,1,0,4.83Z"/><path class="cls-1" d="M305.05,109H284.73a2.8,2.8,0,0,1-2.82-2.42V74.13a2.41,2.41,0,1,1,4.82,0v30h18.32a2.42,2.42,0,0,1,0,4.83Z"/><rect class="cls-2" x="50.87" y="164.76" width="74.49" height="194.38"/><rect class="cls-3" x="50.87" y="164.76" width="74.49" height="6.16"/><rect class="cls-3" x="50.87" y="179.22" width="74.49" height="6.16"/><rect class="cls-3" x="50.87" y="193.68" width="74.49" height="6.16"/><rect class="cls-3" x="50.87" y="208.13" width="74.49" height="6.16"/><rect class="cls-3" x="50.87" y="222.59" width="74.49" height="6.16"/><rect class="cls-3" x="50.87" y="237.05" width="74.49" height="6.16"/><rect class="cls-3" x="50.87" y="251.51" width="74.49" height="6.16"/><rect class="cls-3" x="50.87" y="265.97" width="74.49" height="6.16"/><rect class="cls-3" x="50.87" y="280.42" width="74.49" height="6.16"/><rect class="cls-3" x="50.87" y="294.88" width="74.49" height="6.16"/><rect class="cls-3" x="50.87" y="309.34" width="74.49" height="6.16"/><rect class="cls-3" x="50.87" y="323.8" width="74.49" height="6.16"/><rect class="cls-3" x="50.87" y="338.26" width="74.49" height="6.16"/><rect class="cls-3" x="50.87" y="352.72" width="74.49" height="6.16"/><rect class="cls-3" x="324.64" y="164.76" width="74.49" height="194.38"/><rect class="cls-4" x="324.64" y="164.76" width="74.49" height="6.16"/><rect class="cls-4" x="324.64" y="179.22" width="74.49" height="6.16"/><rect class="cls-4" x="324.64" y="193.68" width="74.49" height="6.16"/><rect class="cls-4" x="324.64" y="208.13" width="74.49" height="6.16"/><rect class="cls-4" x="324.64" y="222.59" width="74.49" height="6.16"/><rect class="cls-4" x="324.64" y="237.05" width="74.49" height="6.16"/><rect class="cls-4" x="324.64" y="251.51" width="74.49" height="6.16"/><rect class="cls-4" x="324.64" y="265.97" width="74.49" height="6.16"/><rect class="cls-4" x="324.64" y="280.42" width="74.49" height="6.16"/><rect class="cls-4" x="324.64" y="294.88" width="74.49" height="6.16"/><rect class="cls-4" x="324.64" y="309.34" width="74.49" height="6.16"/><rect class="cls-4" x="324.64" y="323.8" width="74.49" height="6.16"/><rect class="cls-4" x="324.64" y="338.26" width="74.49" height="6.16"/><rect class="cls-4" x="324.64" y="352.72" width="74.49" height="6.16"/><path class="cls-4" d="M383.16,332.89h-52.7V303.27h52.7Zm0-56.13h-52.7V247.14h52.7Zm0-56.13h-52.7V191h52.7Z"/><rect class="cls-5" x="335.27" y="195.85" width="43.07" height="19.95"/><path class="cls-6" d="M330.46,220.63h52.7V191h-52.7Zm2.41-27.2h47.88v24.78H332.87Z"/><path class="cls-7" d="M380.75,193.43H332.87v24.78h47.88Zm-2.41,22.37H335.27v-20h43.07Z"/><rect class="cls-5" x="335.27" y="251.97" width="43.07" height="19.95"/><path class="cls-6" d="M330.46,276.76h52.7V247.14h-52.7Zm2.41-27.2h47.88v24.78H332.87Z"/><path class="cls-7" d="M380.75,249.56H332.87v24.78h47.88Zm-2.41,22.36H335.27V252h43.07Z"/><rect class="cls-5" x="335.27" y="308.1" width="43.07" height="19.95"/><path class="cls-6" d="M330.46,332.89h52.7V303.27h-52.7Zm2.41-27.2h47.88v24.78H332.87Z"/><path class="cls-7" d="M380.75,305.69H332.87v24.78h47.88Zm-2.41,22.36H335.27V308.1h43.07Z"/><rect class="cls-8" x="73.59" y="195.85" width="39.2" height="19.95"/><path class="cls-9" d="M68.78,220.63H117.6V191H68.78Zm2.4-27.2h44v24.78h-44Z"/><path class="cls-7" d="M115.2,193.43h-44v24.78h44Zm-2.41,22.37H73.59v-20h39.2Z"/><rect class="cls-8" x="73.59" y="251.97" width="39.2" height="19.95"/><path class="cls-9" d="M68.78,276.76H117.6V247.14H68.78Zm2.4-27.2h44v24.78h-44Z"/><path class="cls-7" d="M115.2,249.56h-44v24.78h44Zm-2.41,22.36H73.59V252h39.2Z"/><rect class="cls-8" x="73.59" y="308.1" width="39.2" height="19.95"/><path class="cls-9" d="M68.78,332.89H117.6V303.27H68.78Zm2.4-27.2h44v24.78h-44Z"/><path class="cls-7" d="M115.2,305.69h-44v24.78h44Zm-2.41,22.36H73.59V308.1h39.2Z"/><polygon class="cls-10" points="223.55 112.28 125.36 112.28 125.36 359.14 175.76 359.14 178.08 353.81 184.18 353.81 223.55 353.81 223.55 112.28"/><rect class="cls-2" x="125.36" y="121.16" width="98.19" height="7.66"/><rect class="cls-2" x="125.36" y="135.59" width="98.19" height="7.66"/><rect class="cls-2" x="125.36" y="150.02" width="98.19" height="7.66"/><rect class="cls-2" x="125.36" y="164.46" width="98.19" height="7.66"/><rect class="cls-2" x="125.36" y="178.89" width="98.19" height="7.66"/><rect class="cls-2" x="125.36" y="193.32" width="98.19" height="7.66"/><rect class="cls-2" x="125.36" y="207.76" width="98.19" height="7.66"/><rect class="cls-2" x="125.36" y="222.19" width="98.19" height="7.66"/><rect class="cls-2" x="125.36" y="236.62" width="98.19" height="7.66"/><rect class="cls-2" x="125.36" y="251.06" width="98.19" height="7.66"/><rect class="cls-2" x="125.36" y="265.49" width="98.19" height="7.66"/><rect class="cls-2" x="125.36" y="279.92" width="98.19" height="7.66"/><rect class="cls-2" x="125.36" y="294.36" width="98.19" height="7.66"/><rect class="cls-2" x="125.36" y="308.79" width="98.19" height="7.66"/><rect class="cls-2" x="125.36" y="323.22" width="98.19" height="7.66"/><rect class="cls-2" x="125.36" y="337.66" width="98.19" height="7.66"/><rect class="cls-2" x="125.36" y="352.09" width="98.19" height="7.66"/><rect class="cls-10" x="139.88" y="288.69" width="40.61" height="37.39"/><polygon class="cls-10" points="223.55 353.81 269.99 353.81 272.31 359.14 324.64 359.14 324.64 112.28 223.55 112.28 223.55 353.81"/><rect class="cls-2" x="223.32" y="121.16" width="101.33" height="7.66"/><rect class="cls-2" x="223.32" y="135.59" width="101.33" height="7.66"/><rect class="cls-2" x="223.32" y="150.02" width="101.33" height="7.66"/><rect class="cls-2" x="223.32" y="164.46" width="101.33" height="7.66"/><rect class="cls-2" x="223.32" y="178.89" width="101.33" height="7.66"/><rect class="cls-2" x="223.32" y="193.32" width="101.33" height="7.66"/><rect class="cls-2" x="223.32" y="207.76" width="101.33" height="7.66"/><rect class="cls-2" x="223.32" y="222.19" width="101.33" height="7.66"/><rect class="cls-2" x="223.32" y="236.62" width="101.33" height="7.66"/><rect class="cls-2" x="223.32" y="251.06" width="101.33" height="7.66"/><rect class="cls-2" x="223.32" y="265.49" width="101.33" height="7.66"/><rect class="cls-2" x="223.32" y="279.92" width="101.33" height="7.66"/><rect class="cls-2" x="223.32" y="294.36" width="101.33" height="7.66"/><rect class="cls-2" x="223.32" y="308.79" width="101.33" height="7.66"/><rect class="cls-2" x="223.32" y="323.22" width="101.33" height="7.66"/><rect class="cls-2" x="223.32" y="337.66" width="101.33" height="7.66"/><rect class="cls-2" x="223.32" y="352.09" width="101.33" height="7.66"/><rect class="cls-10" x="272.41" y="288.69" width="40.61" height="37.39"/><rect class="cls-8" x="188.99" y="293.53" width="34.56" height="60.28"/><rect class="cls-5" x="223.55" y="293.53" width="37.46" height="60.28"/><polygon class="cls-6" points="263.41 291.11 263.41 353.81 265.82 353.81 265.82 288.69 223.55 288.69 223.55 291.11 263.41 291.11"/><polygon class="cls-9" points="184.18 353.81 186.59 353.81 186.59 291.11 223.55 291.11 223.55 288.69 184.18 288.69 184.18 353.81"/><polygon class="cls-7" points="261.01 293.52 261.01 353.81 263.41 353.81 263.41 291.11 223.55 291.11 223.55 293.52 261.01 293.52"/><polygon class="cls-7" points="188.99 293.52 223.55 293.52 223.55 291.11 186.59 291.11 186.59 353.81 188.99 353.81 188.99 293.52"/><rect class="cls-5" x="277.23" y="293.53" width="30.98" height="27.72"/><path class="cls-6" d="M272.41,326.09H313v-37.4H272.41Zm2.41-35h35.8v32.56h-35.8Z"/><path class="cls-7" d="M310.62,291.11h-35.8v32.56h35.8Zm-2.41,30.14h-31V293.53h31Z"/><rect class="cls-8" x="144.69" y="293.53" width="30.98" height="27.72"/><path class="cls-9" d="M180.48,288.69h-40.6v37.4h40.6Zm-2.4,35H142.29V291.11h35.79Z"/><path class="cls-7" d="M142.29,323.67h35.79V291.11H142.29Zm2.4-30.14h31v27.72h-31Z"/><rect class="cls-5" x="223.55" y="236.67" width="78.86" height="19.95"/><rect class="cls-8" x="144.69" y="236.67" width="78.86" height="19.95"/><polygon class="cls-6" points="304.81 234.25 304.81 259.03 223.55 259.03 223.55 261.45 307.22 261.45 307.22 231.83 223.55 231.83 223.55 234.25 304.81 234.25"/><polygon class="cls-9" points="139.88 261.45 223.55 261.45 223.55 259.03 142.29 259.03 142.29 234.25 223.55 234.25 223.55 231.83 139.88 231.83 139.88 261.45"/><polygon class="cls-7" points="304.81 234.25 223.55 234.25 223.55 236.67 302.41 236.67 302.41 256.62 223.55 256.62 223.55 259.03 304.81 259.03 304.81 234.25"/><polygon class="cls-7" points="144.69 256.62 144.69 236.67 223.55 236.67 223.55 234.25 142.29 234.25 142.29 259.03 223.55 259.03 223.55 256.62 144.69 256.62"/><rect class="cls-8" x="144.69" y="186.13" width="78.86" height="19.95"/><rect class="cls-5" x="223.55" y="186.13" width="78.86" height="19.95"/><polygon class="cls-9" points="139.88 210.91 223.55 210.91 223.55 208.5 142.29 208.5 142.29 183.71 223.55 183.71 223.55 181.29 139.88 181.29 139.88 210.91"/><polygon class="cls-6" points="304.81 183.71 304.81 208.5 223.55 208.5 223.55 210.91 307.22 210.91 307.22 181.29 223.55 181.29 223.55 183.71 304.81 183.71"/><polygon class="cls-7" points="304.81 183.71 223.55 183.71 223.55 186.13 302.41 186.13 302.41 206.08 223.55 206.08 223.55 208.5 304.81 208.5 304.81 183.71"/><polygon class="cls-7" points="144.69 206.08 144.69 186.13 223.55 186.13 223.55 183.71 142.29 183.71 142.29 208.5 223.55 208.5 223.55 206.08 144.69 206.08"/><rect class="cls-5" x="223.55" y="135.59" width="78.86" height="19.95"/><rect class="cls-8" x="144.69" y="135.59" width="78.86" height="19.95"/><polygon class="cls-9" points="142.29 157.96 142.29 133.17 223.55 133.17 223.55 130.75 139.88 130.75 139.88 160.38 223.55 160.38 223.55 157.96 142.29 157.96"/><polygon class="cls-6" points="307.22 130.75 223.55 130.75 223.55 133.17 304.81 133.17 304.81 157.96 223.55 157.96 223.55 160.38 307.22 160.38 307.22 130.75"/><polygon class="cls-7" points="302.41 135.59 302.41 155.54 223.55 155.54 223.55 157.96 304.81 157.96 304.81 133.17 223.55 133.17 223.55 135.59 302.41 135.59"/><polygon class="cls-7" points="142.29 157.96 223.55 157.96 223.55 155.54 144.69 155.54 144.69 135.59 223.55 135.59 223.55 133.17 142.29 133.17 142.29 157.96"/><polygon class="cls-11" points="269.99 353.81 223.55 353.81 223.55 359.14 272.31 359.14 269.99 353.81"/><polygon class="cls-12" points="178.08 353.81 175.76 359.14 223.55 359.14 223.55 353.81 178.08 353.81"/><rect class="cls-1" x="223.55" y="359.14" width="48.76" height="5.33"/><rect class="cls-13" x="175.76" y="359.14" width="47.79" height="5.33"/><polygon class="cls-11" points="223.55 369.81 276.95 369.81 272.31 364.48 223.55 364.48 223.55 369.81"/><polygon class="cls-12" points="223.55 364.48 175.76 364.48 171.12 369.81 223.55 369.81 223.55 364.48"/><rect class="cls-13" x="171.12" y="369.81" width="52.43" height="5.33"/><rect class="cls-1" x="223.55" y="369.81" width="53.4" height="5.33"/><polygon class="cls-12" points="171.12 375.14 166.47 380.48 223.55 380.48 223.55 375.14 171.12 375.14"/><polygon class="cls-11" points="223.55 380.48 281.59 380.48 276.95 375.14 223.55 375.14 223.55 380.48"/></svg>